<svg width="601" height="286" viewBox="0 0 601 286" fill="none" xmlns="http://www.w3.org/2000/svg">
<g clip-path="url(#clip0_1_2)">
<g clip-path="url(#clip1_1_2)">
<path d="M102.127 0.248183C96.3759 1.07284 88.8238 3.78551 85.7205 6.12926C79.0148 11.2074 74.5877 17.9131 72.4826 26.1379C71.5495 29.914 71.224 33.1475 71.3542 38.2256C71.4844 43.6293 71.8316 45.8211 73.0252 48.5555C77.4523 58.7551 85.4384 67.2838 96.8967 73.9678C103.559 77.8741 110.308 80.5216 119.705 82.9088C134.939 86.815 149.87 92.414 154.666 96.0598C159.701 99.8793 162.283 107.713 161.567 116.893C161.155 121.928 160.46 125.183 158.876 129.263C155.078 139.029 145.812 147.796 134.223 152.527L131.727 153.547L131.662 159.949C131.641 163.486 131.662 166.372 131.706 166.372C132.075 166.372 136.046 165.352 138.216 164.723C148.98 161.511 159.31 155.804 166.254 149.228C170.877 144.845 173.155 141.893 175.521 137.184C179.297 129.632 181.597 122.232 182.422 114.962C182.812 111.533 182.574 105.305 181.988 103.221C179.319 93.8897 173.069 85.8168 164.583 80.7603C158.876 77.3749 143.598 73.1432 126.953 70.322C115.495 68.3906 103.733 63.5728 95.5295 57.4748C93.0338 55.6301 89.388 52.0928 87.9991 50.1831C84.8524 45.8645 82.704 36.6848 83.4418 30.6301C84.0712 25.4435 85.6337 21.4504 88.6285 17.414C89.9523 15.6128 95.1606 12.5095 99.0668 11.2074C104.167 9.49298 110.069 9.44957 114.844 11.0772C118.294 12.2491 121.68 14.5494 123.481 16.9583C124.674 18.5642 126.259 21.5372 126.714 23.1215C127.062 24.315 127.17 26.3116 126.931 27.2013C126.845 27.4834 126.085 28.1996 125.13 28.8723C122.938 30.4131 121.376 31.8237 120.877 32.7569C120.486 33.4947 120.486 33.5815 120.855 35.8819C121.832 41.9583 124.891 48.3385 129.47 53.8506C131.38 56.151 134.375 58.9504 134.896 58.9504C135.482 58.9504 137.088 58.3211 137.543 57.9088C138.043 57.4748 139.735 54.1544 140.929 51.2682C143.186 45.8428 144.64 39.506 144.705 34.8619C144.748 33.0173 144.683 32.6701 144.141 31.5633C143.359 29.9574 141.58 28.3515 139.388 27.2447C137.5 26.2899 136.957 25.6605 136.719 24.0763C136.523 22.7742 135.091 18.3471 134.028 15.6996C133.377 14.0937 132.812 13.1605 131.749 11.8801C126.801 5.93395 120.508 2.0711 113.433 0.573704C110.59 -0.0339349 105.208 -0.185845 102.127 0.248183Z" fill="url(#paint0_linear_1_2)"/>
<path d="M2.73438 101.572C5.72917 104.48 8.46354 106.476 10.8507 107.431C12.2179 107.996 12.6736 108.061 15.5165 108.126C21.658 108.299 27.7344 109.753 34.592 112.748C40.3212 115.244 47.7431 120.04 52.6259 124.38C57.3134 128.569 64.6701 133.864 70.204 137.032C81.7491 143.608 95.7465 148.534 108.832 150.617C111.654 151.073 116.341 151.615 117.47 151.615H118.381V173.729V195.843L118.945 196.212C121.398 197.818 126.02 197.796 128.494 196.168L129.015 195.843V172.904V149.988L130.599 149.358C139.627 145.778 147.157 140.114 151.432 133.647C153.798 130.088 155.707 125.27 156.489 120.908C157.031 117.761 157.118 112.726 156.684 109.298C156.293 106.173 155.382 102.136 154.622 100.118L154.167 98.881H77.0833L0 98.9027L2.73438 101.572Z" fill="url(#paint1_linear_1_2)"/>
<path d="M185.438 99.0546C185.438 99.1631 185.634 99.7925 185.851 100.465C186.523 102.418 186.979 104.979 187.131 107.865C187.565 115.721 186.111 123.534 182.292 133.712C182.205 133.95 182.422 133.799 182.747 133.386C184.223 131.585 186.806 128.807 188.477 127.245C198.915 117.414 214.887 109.623 229.709 107.128C239.28 105.5 246.137 102.896 249.219 99.6623L249.978 98.881H217.708C199.957 98.881 185.438 98.9678 185.438 99.0546Z" fill="url(#paint2_linear_1_2)"/>
<path d="M112.956 154.979C112.782 155.023 111.892 155.174 111.003 155.305C107.899 155.825 104.405 157.258 101.128 159.384C98.8715 160.86 94.8785 164.962 93.1207 167.609C91.4496 170.148 89.6701 173.534 88.6502 176.16C88.0425 177.722 87.934 178.352 87.8472 180.478C87.3264 191.741 94.0104 201.659 106.38 207.996C110.547 210.122 111.871 210.556 115.234 210.882C119.727 211.338 130.859 211.273 134.874 210.795C143.88 209.71 150.998 207.431 156.228 203.959C160.937 200.834 165.538 194.454 167.535 188.291C168.251 186.056 168.49 182.822 168.077 180.956C167.708 179.22 166.515 177.049 165.191 175.704C161.979 172.405 158.29 171.19 150.911 170.995C145.095 170.821 140.538 171.472 134.896 173.208L132.27 174.033V178.308V182.583L134.397 182.041C136.155 181.585 137.044 181.498 139.865 181.477C142.925 181.455 143.316 181.498 144.119 181.932C145.139 182.475 146.571 184.254 147.287 185.817C148.025 187.466 147.96 189.528 147.092 191.329C146.05 193.542 144.618 194.953 142.079 196.277C139.475 197.644 134.983 199.163 131.944 199.706C128.971 200.248 122.938 200.248 120.226 199.727C111.328 197.991 106.467 194.497 104.362 188.399C103.841 186.902 103.754 186.316 103.754 184.167C103.754 181.455 103.993 180.24 105.165 177.18C105.751 175.682 106.12 175.118 107.292 173.881C109.158 171.95 111.936 169.866 114.041 168.846L115.712 168.022L115.842 164.115C115.929 161.989 115.994 159.016 115.994 157.54V154.871L114.648 154.892C113.889 154.914 113.129 154.957 112.956 154.979Z" fill="url(#paint3_linear_1_2)"/>
<path d="M113.715 181.997C112.76 182.475 111.48 183.278 110.872 183.777C108.789 185.491 106.944 188.117 107.183 189.007C107.313 189.549 109.831 192.392 110.786 193.065L111.415 193.521L113.607 192.067L115.777 190.613V185.86C115.777 183.256 115.712 181.129 115.625 181.129C115.516 181.129 114.67 181.52 113.715 181.997Z" fill="url(#paint4_linear_1_2)"/>
<path d="M97.7647 209.298C95.4644 215.374 95.855 221.537 98.8715 227.115C100.564 230.283 102.669 232.844 105.534 235.296C110.764 239.766 126.519 243.347 144.748 244.259C149.457 244.497 151.259 244.996 154.427 247.015C156.098 248.056 159.049 248.556 159.332 247.839C159.549 247.275 158.767 246.103 157.183 244.606C153.537 241.155 148.025 239.007 139.952 237.878C135.026 237.184 125.174 235.122 122.179 234.146C115.061 231.845 110.503 226.464 109.158 218.781C108.984 217.74 108.832 216.264 108.832 215.526C108.832 214.289 108.789 214.159 108.355 214.05C107.704 213.877 102.951 211.164 100.326 209.45L98.2205 208.061L97.7647 209.298Z" fill="url(#paint5_linear_1_2)"/>
<path d="M118.381 221.95V229.111L121.267 230.5C124.523 232.041 126.476 232.757 127.973 232.931L129.015 233.061V223.903V214.766H123.698H118.381V221.95Z" fill="url(#paint6_linear_1_2)"/>
<path d="M118.338 251.702L118.273 259.58L117.643 260.882C116.081 264.05 111.74 266.633 107.964 266.633C104.449 266.633 99.1753 268.087 94.5747 270.322C90.3212 272.405 87.7821 272.991 81.7274 273.36C77.3003 273.642 74.7179 274.033 71.0069 274.988C68.4679 275.639 63.0859 277.375 62.8472 277.614C62.8038 277.657 90.9288 277.7 125.347 277.679L187.934 277.657L185.981 276.724C183.529 275.53 178.906 273.968 175.304 273.121C172.938 272.557 171.897 272.427 168.294 272.297C162.934 272.08 162.174 271.863 157.161 269.15C152.995 266.893 149.848 266.112 143.641 265.786C139.735 265.569 138.368 265.2 136.437 263.877C134.701 262.683 133.464 261.142 132.161 258.495C130.773 255.652 130.013 253.135 129.536 249.727C129.362 248.339 129.167 246.906 129.102 246.559L129.015 245.908L126.367 245.539C124.154 245.214 120.334 244.411 118.772 243.933C118.424 243.825 118.403 244.411 118.338 251.702Z" fill="url(#paint7_linear_1_2)"/>
</g>
<path d="M218.56 279.536C205.333 279.536 194.197 275.952 185.152 268.784C176.107 261.616 171.584 251.333 171.584 237.936C171.584 230.085 173.077 223.088 176.064 216.944C179.051 210.8 182.976 205.979 187.84 202.48C197.653 195.312 208.661 191.728 220.864 191.728C227.947 191.728 235.328 193.008 243.008 195.568L241.728 204.272C237.717 202.565 234.603 201.285 232.384 200.432C225.984 198.128 219.541 196.976 213.056 196.976C204.096 199.024 197.184 203.461 192.32 210.288C187.541 217.115 185.152 225.648 185.152 235.888C185.152 248.432 188.437 258.117 195.008 264.944C201.579 271.685 210.24 275.056 220.992 275.056C231.744 275.056 239.765 272.752 245.056 268.144V275.184C237.717 278.085 228.885 279.536 218.56 279.536ZM285.355 264.432V251.248C279.211 251.675 274.176 253.04 270.251 255.344C266.326 257.648 264.363 260.123 264.363 262.768C264.363 265.413 265.046 267.717 266.411 269.68C267.776 271.557 269.526 272.88 271.659 273.648C274.475 273.136 277.462 271.728 280.619 269.424C283.776 267.12 285.355 265.456 285.355 264.432ZM295.851 260.976C295.851 267.035 298.07 271.643 302.507 274.8L295.851 279.664L285.483 270.32C278.742 276.464 272.512 279.536 266.795 279.536C263.04 279.536 259.798 278.341 257.067 275.952C254.422 273.563 253.099 270.576 253.099 266.992C253.099 263.323 254.166 260.293 256.299 257.904C258.518 255.515 261.419 253.68 265.003 252.4C271.147 250.096 277.931 248.645 285.355 248.048V236.016C285.355 228.933 281.259 225.392 273.067 225.392C268.374 225.392 262.827 226.416 256.427 228.464L255.275 225.264C256.982 223.899 259.926 222.448 264.107 220.912C268.374 219.376 272.427 218.608 276.267 218.608C280.107 218.608 283.307 219.12 285.867 220.144C288.512 221.168 290.432 222.32 291.627 223.6C292.907 224.88 293.888 226.629 294.571 228.848C295.254 231.067 295.638 232.816 295.723 234.096C295.808 235.376 295.851 237.083 295.851 239.216V260.976ZM360.022 260.848C360.022 266.736 362.198 271.429 366.55 274.928L360.022 279.664L349.526 270.32C346.113 273.563 343.041 275.909 340.31 277.36C337.579 278.811 334.763 279.536 331.862 279.536C328.961 279.536 326.401 279.109 324.182 278.256C321.963 277.403 319.617 275.995 317.142 274.032C314.753 271.984 312.79 268.827 311.254 264.56C309.803 260.208 309.078 254.619 309.078 247.792C309.078 240.965 311.083 234.437 315.094 228.208C319.19 221.893 324.779 218.736 331.862 218.736C337.153 218.736 342.913 220.699 349.142 224.624V190.576H360.022V260.848ZM349.142 265.072V229.36C344.619 226.373 340.481 224.88 336.726 224.88C331.777 224.88 327.809 227.227 324.822 231.92C321.835 236.528 320.342 242.331 320.342 249.328C320.342 256.325 321.409 261.957 323.542 266.224C325.761 270.405 328.491 272.923 331.734 273.776C334.721 273.52 337.622 272.795 340.438 271.6C343.339 270.405 345.515 269.211 346.966 268.016C348.417 266.736 349.142 265.755 349.142 265.072ZM420.566 260.848C420.566 266.736 422.785 271.387 427.222 274.8L420.566 279.536L410.198 270.192C406.699 273.52 403.585 275.909 400.854 277.36C398.123 278.811 394.881 279.536 391.126 279.536C387.457 279.536 384.043 278.128 380.886 275.312C377.814 272.411 376.278 267.461 376.278 260.464V220.144H387.158V261.104C387.158 265.2 387.883 268.315 389.334 270.448C390.87 272.496 393.473 273.52 397.142 273.52C400.897 273.52 405.078 270.789 409.686 265.328V220.144H420.566V260.848ZM460.434 279.536C453.01 279.536 446.823 277.019 441.874 271.984C437.01 266.864 434.578 259.653 434.578 250.352C434.578 241.051 437.181 233.456 442.386 227.568C447.677 221.595 454.375 218.608 462.482 218.608C467.005 218.608 472.082 219.717 477.714 221.936L476.434 230.384C468.925 226.459 462.482 224.496 457.106 224.496C452.669 226.715 449.469 230.299 447.506 235.248C445.543 240.197 444.562 245.061 444.562 249.84C444.562 256.325 446.439 261.744 450.194 266.096C454.034 270.363 458.599 272.496 463.89 272.496C469.181 272.496 474.045 271.344 478.482 269.04V273.52C472.338 277.531 466.322 279.536 460.434 279.536ZM496.69 246.512C496.69 255.728 498.738 262.384 502.834 266.48C507.015 270.491 512.05 272.496 517.938 272.496C523.911 272.496 529.415 271.344 534.45 269.04V273.52C527.453 277.531 520.754 279.536 514.354 279.536C506.077 279.536 499.378 277.019 494.258 271.984C489.138 266.949 486.578 259.653 486.578 250.096C486.578 240.539 489.394 232.901 495.026 227.184C500.743 221.467 507.613 218.608 515.634 218.608C521.863 218.608 527.069 221.083 531.25 226.032C535.431 230.896 537.522 237.723 537.522 246.512H496.69ZM509.106 224.624C506.119 226.075 503.559 228.421 501.426 231.664C499.293 234.821 497.885 238.491 497.202 242.672H527.154C526.898 239.088 526.045 236.016 524.594 233.456C523.229 230.896 521.565 229.019 519.602 227.824C516.103 225.691 512.605 224.624 509.106 224.624ZM512.818 213.104H507.698L529.714 189.04L536.882 195.44L512.818 213.104ZM553.565 246.512C553.565 255.728 555.613 262.384 559.709 266.48C563.89 270.491 568.925 272.496 574.813 272.496C580.786 272.496 586.29 271.344 591.325 269.04V273.52C584.328 277.531 577.629 279.536 571.229 279.536C562.952 279.536 556.253 277.019 551.133 271.984C546.013 266.949 543.453 259.653 543.453 250.096C543.453 240.539 546.269 232.901 551.901 227.184C557.618 221.467 564.488 218.608 572.509 218.608C578.738 218.608 583.944 221.083 588.125 226.032C592.306 230.896 594.397 237.723 594.397 246.512H553.565ZM565.981 224.624C562.994 226.075 560.434 228.421 558.301 231.664C556.168 234.821 554.76 238.491 554.077 242.672H584.029C583.773 239.088 582.92 236.016 581.469 233.456C580.104 230.896 578.44 229.019 576.477 227.824C572.978 225.691 569.48 224.624 565.981 224.624Z" fill="url(#paint8_linear_1_2)" style="mix-blend-mode:darken"/>
</g>
<defs>
<linearGradient id="paint0_linear_1_2" x1="126.97" y1="166.372" x2="126.97" y2="-7.62939e-06" gradientUnits="userSpaceOnUse">
<stop stop-color="#315C4E"/>
<stop offset="1" stop-color="#1B8C5C"/>
</linearGradient>
<linearGradient id="paint1_linear_1_2" x1="78.4801" y1="197.403" x2="78.4801" y2="98.881" gradientUnits="userSpaceOnUse">
<stop stop-color="#315C4E"/>
<stop offset="1" stop-color="#1B8C5C"/>
</linearGradient>
<linearGradient id="paint2_linear_1_2" x1="216.125" y1="133.825" x2="216.125" y2="98.881" gradientUnits="userSpaceOnUse">
<stop stop-color="#315C4E"/>
<stop offset="1" stop-color="#1B8C5C"/>
</linearGradient>
<linearGradient id="paint3_linear_1_2" x1="128.049" y1="211.191" x2="128.049" y2="154.871" gradientUnits="userSpaceOnUse">
<stop stop-color="#315C4E"/>
<stop offset="1" stop-color="#1B8C5C"/>
</linearGradient>
<linearGradient id="paint4_linear_1_2" x1="111.47" y1="193.521" x2="111.47" y2="181.129" gradientUnits="userSpaceOnUse">
<stop stop-color="#315C4E"/>
<stop offset="1" stop-color="#1B8C5C"/>
</linearGradient>
<linearGradient id="paint5_linear_1_2" x1="127.826" y1="248.176" x2="127.826" y2="208.061" gradientUnits="userSpaceOnUse">
<stop stop-color="#315C4E"/>
<stop offset="1" stop-color="#1B8C5C"/>
</linearGradient>
<linearGradient id="paint6_linear_1_2" x1="123.698" y1="233.061" x2="123.698" y2="214.766" gradientUnits="userSpaceOnUse">
<stop stop-color="#315C4E"/>
<stop offset="1" stop-color="#1B8C5C"/>
</linearGradient>
<linearGradient id="paint7_linear_1_2" x1="125.391" y1="277.685" x2="125.391" y2="243.922" gradientUnits="userSpaceOnUse">
<stop stop-color="#315C4E"/>
<stop offset="1" stop-color="#1B8C5C"/>
</linearGradient>
<linearGradient id="paint8_linear_1_2" x1="168" y1="169" x2="559.892" y2="169" gradientUnits="userSpaceOnUse">
<stop stop-color="#315C4E"/>
<stop offset="1" stop-color="#23CC8C"/>
</linearGradient>
<clipPath id="clip0_1_2">
<rect width="601" height="286" fill="white"/>
</clipPath>
<clipPath id="clip1_1_2">
<rect width="250" height="277.832" fill="white"/>
</clipPath>
</defs>
</svg>
