<svg width="433" height="115" viewBox="0 0 433 115" fill="none" xmlns="http://www.w3.org/2000/svg">
<g clip-path="url(#clip0_1_2)">
<path d="M50.56 97.536C37.3333 97.536 26.1973 93.952 17.152 86.784C8.10667 79.616 3.584 69.3333 3.584 55.936C3.584 48.0853 5.07733 41.088 8.064 34.944C11.0507 28.8 14.976 23.9787 19.84 20.48C29.6533 13.312 40.6613 9.728 52.864 9.728C59.9467 9.728 67.328 11.008 75.008 13.568L73.728 22.272C69.7173 20.5653 66.6027 19.2853 64.384 18.432C57.984 16.128 51.5413 14.976 45.056 14.976C36.096 17.024 29.184 21.4613 24.32 28.288C19.5413 35.1147 17.152 43.648 17.152 53.888C17.152 66.432 20.4373 76.1173 27.008 82.944C33.5787 89.6853 42.24 93.056 52.992 93.056C63.744 93.056 71.7653 90.752 77.056 86.144V93.184C69.7173 96.0853 60.8853 97.536 50.56 97.536ZM117.355 82.432V69.248C111.211 69.6747 106.176 71.04 102.251 73.344C98.3257 75.648 96.363 78.1227 96.363 80.768C96.363 83.4133 97.0457 85.7173 98.411 87.68C99.7763 89.5573 101.526 90.88 103.659 91.648C106.475 91.136 109.462 89.728 112.619 87.424C115.776 85.12 117.355 83.456 117.355 82.432ZM127.851 78.976C127.851 85.0347 130.07 89.6427 134.507 92.8L127.851 97.664L117.483 88.32C110.742 94.464 104.512 97.536 98.795 97.536C95.0403 97.536 91.7977 96.3413 89.067 93.952C86.4217 91.5627 85.099 88.576 85.099 84.992C85.099 81.3227 86.1657 78.2933 88.299 75.904C90.5177 73.5147 93.419 71.68 97.003 70.4C103.147 68.096 109.931 66.6453 117.355 66.048V54.016C117.355 46.9333 113.259 43.392 105.067 43.392C100.374 43.392 94.827 44.416 88.427 46.464L87.275 43.264C88.9817 41.8987 91.9257 40.448 96.107 38.912C100.374 37.376 104.427 36.608 108.267 36.608C112.107 36.608 115.307 37.12 117.867 38.144C120.512 39.168 122.432 40.32 123.627 41.6C124.907 42.88 125.888 44.6293 126.571 46.848C127.254 49.0667 127.638 50.816 127.723 52.096C127.808 53.376 127.851 55.0827 127.851 57.216V78.976ZM192.022 78.848C192.022 84.736 194.198 89.4293 198.55 92.928L192.022 97.664L181.526 88.32C178.113 91.5627 175.041 93.9093 172.31 95.36C169.579 96.8107 166.763 97.536 163.862 97.536C160.961 97.536 158.401 97.1093 156.182 96.256C153.963 95.4027 151.617 93.9947 149.142 92.032C146.753 89.984 144.79 86.8267 143.254 82.56C141.803 78.208 141.078 72.6187 141.078 65.792C141.078 58.9653 143.083 52.4373 147.094 46.208C151.19 39.8933 156.779 36.736 163.862 36.736C169.153 36.736 174.913 38.6987 181.142 42.624V8.576H192.022V78.848ZM181.142 83.072V47.36C176.619 44.3733 172.481 42.88 168.726 42.88C163.777 42.88 159.809 45.2267 156.822 49.92C153.835 54.528 152.342 60.3307 152.342 67.328C152.342 74.3253 153.409 79.9573 155.542 84.224C157.761 88.4053 160.491 90.9227 163.734 91.776C166.721 91.52 169.622 90.7947 172.438 89.6C175.339 88.4053 177.515 87.2107 178.966 86.016C180.417 84.736 181.142 83.7547 181.142 83.072ZM252.566 78.848C252.566 84.736 254.785 89.3867 259.222 92.8L252.566 97.536L242.198 88.192C238.699 91.52 235.585 93.9093 232.854 95.36C230.123 96.8107 226.881 97.536 223.126 97.536C219.457 97.536 216.043 96.128 212.886 93.312C209.814 90.4107 208.278 85.4613 208.278 78.464V38.144H219.158V79.104C219.158 83.2 219.883 86.3147 221.334 88.448C222.87 90.496 225.473 91.52 229.142 91.52C232.897 91.52 237.078 88.7893 241.686 83.328V38.144H252.566V78.848ZM292.434 97.536C285.01 97.536 278.823 95.0187 273.874 89.984C269.01 84.864 266.578 77.6533 266.578 68.352C266.578 59.0507 269.181 51.456 274.386 45.568C279.677 39.5947 286.375 36.608 294.482 36.608C299.005 36.608 304.082 37.7173 309.714 39.936L308.434 48.384C300.925 44.4587 294.482 42.496 289.106 42.496C284.669 44.7147 281.469 48.2987 279.506 53.248C277.543 58.1973 276.562 63.0613 276.562 67.84C276.562 74.3253 278.439 79.744 282.194 84.096C286.034 88.3627 290.599 90.496 295.89 90.496C301.181 90.496 306.045 89.344 310.482 87.04V91.52C304.338 95.5307 298.322 97.536 292.434 97.536ZM328.69 64.512C328.69 73.728 330.738 80.384 334.834 84.48C339.015 88.4907 344.05 90.496 349.938 90.496C355.911 90.496 361.415 89.344 366.45 87.04V91.52C359.453 95.5307 352.754 97.536 346.354 97.536C338.077 97.536 331.378 95.0187 326.258 89.984C321.138 84.9493 318.578 77.6533 318.578 68.096C318.578 58.5387 321.394 50.9013 327.026 45.184C332.743 39.4667 339.613 36.608 347.634 36.608C353.863 36.608 359.069 39.0827 363.25 44.032C367.431 48.896 369.522 55.7227 369.522 64.512H328.69ZM341.106 42.624C338.119 44.0747 335.559 46.4213 333.426 49.664C331.293 52.8213 329.885 56.4907 329.202 60.672H359.154C358.898 57.088 358.045 54.016 356.594 51.456C355.229 48.896 353.565 47.0187 351.602 45.824C348.103 43.6907 344.605 42.624 341.106 42.624ZM344.818 31.104H339.698L361.714 7.03999L368.882 13.44L344.818 31.104ZM385.565 64.512C385.565 73.728 387.613 80.384 391.709 84.48C395.89 88.4907 400.925 90.496 406.813 90.496C412.786 90.496 418.29 89.344 423.325 87.04V91.52C416.328 95.5307 409.629 97.536 403.229 97.536C394.952 97.536 388.253 95.0187 383.133 89.984C378.013 84.9493 375.453 77.6533 375.453 68.096C375.453 58.5387 378.269 50.9013 383.901 45.184C389.618 39.4667 396.488 36.608 404.509 36.608C410.738 36.608 415.944 39.0827 420.125 44.032C424.306 48.896 426.397 55.7227 426.397 64.512H385.565ZM397.981 42.624C394.994 44.0747 392.434 46.4213 390.301 49.664C388.168 52.8213 386.76 56.4907 386.077 60.672H416.029C415.773 57.088 414.92 54.016 413.469 51.456C412.104 48.896 410.44 47.0187 408.477 45.824C404.978 43.6907 401.48 42.624 397.981 42.624Z" fill="url(#paint0_linear_1_2)" style="mix-blend-mode:darken"/>
</g>
<defs>
<linearGradient id="paint0_linear_1_2" x1="0" y1="-13" x2="391.892" y2="-13" gradientUnits="userSpaceOnUse">
<stop stop-color="#315C4E"/>
<stop offset="1" stop-color="#23CC8C"/>
</linearGradient>
<clipPath id="clip0_1_2">
<rect width="433" height="115" fill="white"/>
</clipPath>
</defs>
</svg>
